SILVERTORRENT Clean Verified Torrents Download
  
http://silvertorrent.org/

--------------------------------------------------
 
http://www.shotpix.com/images/30310879991403227658.jpg

General
Complete name :Ice.Age.4.Continental.Drift.2012.DVDRip.XviD-3LT0N
Format : AVI
Format/Info : Audio Video Interleave
File size : 700 MiB
Duration : 1h 27mn
Overall bit rate mode : Variable
Overall bit rate : 1 116 Kbps

Video
ID : 0
Format : MPEG-4 Visual
Format profile : Advanced Simple@L5
Format settings, BVOP : 2
Format settings, QPel : No
Format settings, GMC : No warppoints
Format settings, Matrix : Default (H.263)
Codec ID : XVID
Codec ID/Hint : XviD
Duration : 1h 27mn
Bit rate : 983 Kbps
Width : 656 pixels
Height : 272 pixels
Display aspect ratio : 2.40:1
Frame rate : 23.976 fps
Color space : YUV
Chroma subsampling : 4:2:0
Bit depth : 8 bits
Scan type : Progressive
Compression mode : Lossy
Bits/(Pixel*Frame) : 0.230
Stream size : 617 MiB (88%)
Writing library : XviD 1.2.1 (UTC 2008-12-04)

Audio
ID : 1
Format : MPEG Audio
Format version : Version 1
Format profile : Layer 3
Mode : Joint stereo
Mode extension : MS Stereo
Codec ID : 55
Codec ID/Hint : MP3
Duration : 1h 27mn
Bit rate mode : Variable
Bit rate : 120 Kbps
Nominal bit rate : 128 Kbps
Channel(s) : 2 channels
Sampling rate : 48.0 KHz
Compression mode : Lossy
Stream size : 75.6 MiB (11%)
Alignment : Aligned on interleaves
Interleave, duration : 24 ms (0.58 video frame)
Interleave, preload duration : 70 ms
Title : English - 3LT0N
Writing library : LAME3.99r
Encoding settings : -m j -V 4 -q 2 -lowpass 17 --abr 128

IMDB:http://www.imdb.com/title/tt1667889/
 
http://i.minus.com/iJltUBICwrJvY.png 
http://i.minus.com/iA6XGk77uHsv1.png 
http://i.minus.com/iKmkhU1KNmeQQ.png 
http://i.minus.com/ixbPGQ6KSAlVq.png

